<svg xmlns="http://www.w3.org/2000/svg" viewBox="0 0 589.48 134.44"><defs><style>.cls-1{fill:#c14729;}.cls-2{fill:#238dc1;}.cls-3{fill:#f88d2b;}.cls-4{fill:#006098;}.cls-5{fill:#f7be00;}.cls-6{fill:#003a70;}</style></defs><title>ADNSW_Logo-Horizontal-Full-Colour_PMS654</title><g id="Layer_2" data-name="Layer 2"><g id="Layer_21" data-name="Layer 21"><path class="cls-1" d="M62.5,29.49a1.65,1.65,0,0,1-2.33,0l-1.56-1.56a1.64,1.64,0,0,1,0-2.32L69.18,15,58.61,4.36a1.64,1.64,0,0,1,0-2.32L60.17.48a1.65,1.65,0,0,1,2.33,0L75.83,13.82a1.65,1.65,0,0,1,0,2.33Z"/><path class="cls-2" d="M72,105a1.62,1.62,0,0,1,2.32,0l1.56,1.55a1.65,1.65,0,0,1,0,2.33L65.27,119.46l10.56,10.62a1.64,1.64,0,0,1,0,2.32L74.27,134A1.64,1.64,0,0,1,72,134L58.61,120.62a1.65,1.65,0,0,1,0-2.33Z"/><path class="cls-1" d="M49.88,33.38a1.65,1.65,0,0,1-2.19.8l-2-.93a1.66,1.66,0,0,1-.8-2.19l6.3-13.59L37.64,11.1a1.63,1.63,0,0,1-.79-2.18l.93-2A1.65,1.65,0,0,1,40,6.12l17.09,8a1.65,1.65,0,0,1,.8,2.19Z"/><path class="cls-2" d="M84.56,101.06a1.65,1.65,0,0,1,2.19-.79l2,.93a1.64,1.64,0,0,1,.8,2.18L83.24,117l13.56,6.36a1.66,1.66,0,0,1,.8,2.19l-.93,2a1.65,1.65,0,0,1-2.19.8l-17.09-8a1.65,1.65,0,0,1-.8-2.19Z"/><path class="cls-1" d="M39.36,41.35a1.65,1.65,0,0,1-1.79,1.5l-2.19-.19a1.65,1.65,0,0,1-1.49-1.78L35.16,26,20.24,24.61a1.65,1.65,0,0,1-1.5-1.78l.2-2.2a1.64,1.64,0,0,1,1.78-1.49L39.5,20.78A1.65,1.65,0,0,1,41,22.56Z"/><path class="cls-2" d="M95.09,93.09a1.64,1.64,0,0,1,1.78-1.5l2.19.19a1.66,1.66,0,0,1,1.5,1.78l-1.27,14.93,14.92,1.35a1.64,1.64,0,0,1,1.49,1.78l-.19,2.19a1.65,1.65,0,0,1-1.79,1.5l-18.78-1.65a1.63,1.63,0,0,1-1.5-1.78Z"/><path class="cls-3" d="M32.19,52.45a1.64,1.64,0,0,1-1.16,2L28.9,55a1.65,1.65,0,0,1-2-1.16L23,39.41,8.5,43.25a1.63,1.63,0,0,1-2-1.16L5.92,40a1.64,1.64,0,0,1,1.16-2L25.3,33.06a1.64,1.64,0,0,1,2,1.17Z"/><path class="cls-4" d="M102.25,82a1.63,1.63,0,0,1,1.16-2l2.13-.57a1.63,1.63,0,0,1,2,1.16L111.46,95l14.48-3.84a1.64,1.64,0,0,1,2,1.16l.57,2.13a1.64,1.64,0,0,1-1.16,2l-18.21,4.88a1.66,1.66,0,0,1-2-1.16Z"/><path class="cls-3" d="M29.26,65.32a1.65,1.65,0,0,1-.41,2.3l-1.8,1.26a1.65,1.65,0,0,1-2.29-.4L16.14,56.23,3.85,64.79a1.65,1.65,0,0,1-2.29-.4L.3,62.58a1.65,1.65,0,0,1,.4-2.29L16.15,49.47a1.65,1.65,0,0,1,2.29.4Z"/><path class="cls-4" d="M105.19,69.12a1.65,1.65,0,0,1,.4-2.3l1.8-1.26a1.65,1.65,0,0,1,2.29.4l8.62,12.26,12.29-8.57a1.64,1.64,0,0,1,2.29.41l1.26,1.8a1.63,1.63,0,0,1-.4,2.29L118.3,85a1.64,1.64,0,0,1-2.3-.4Z"/><path class="cls-3" d="M30.9,78.43a1.65,1.65,0,0,1,.4,2.29L30,82.53a1.65,1.65,0,0,1-2.29.4L15.46,74.37,6.84,86.62a1.65,1.65,0,0,1-2.29.4l-1.8-1.26a1.64,1.64,0,0,1-.41-2.29L13.16,68a1.65,1.65,0,0,1,2.29-.4Z"/><path class="cls-4" d="M103.55,56a1.64,1.64,0,0,1-.41-2.29l1.26-1.8a1.64,1.64,0,0,1,2.29-.41L119,60.08l8.62-12.26a1.65,1.65,0,0,1,2.29-.4l1.8,1.26a1.65,1.65,0,0,1,.41,2.3L121.28,66.43a1.65,1.65,0,0,1-2.29.4Z"/><path class="cls-5" d="M36.92,90.18a1.64,1.64,0,0,1,1.16,2l-.57,2.13a1.64,1.64,0,0,1-2,1.16L21,91.65l-3.91,14.46a1.63,1.63,0,0,1-2,1.16L13,106.7a1.64,1.64,0,0,1-1.16-2l4.88-18.23a1.66,1.66,0,0,1,2-1.16Z"/><path class="cls-6" d="M97.52,44.26a1.65,1.65,0,0,1-1.16-2l.57-2.12a1.64,1.64,0,0,1,2-1.17l14.48,3.85,3.91-14.47a1.65,1.65,0,0,1,2-1.16l2.13.57a1.64,1.64,0,0,1,1.16,2L117.75,48a1.63,1.63,0,0,1-2,1.16Z"/><path class="cls-5" d="M46.6,99.17a1.65,1.65,0,0,1,1.78,1.49l.19,2.19a1.65,1.65,0,0,1-1.49,1.79L32.16,106l1.27,14.93a1.64,1.64,0,0,1-1.49,1.78l-2.2.19A1.65,1.65,0,0,1,28,121.39L26.32,102.6a1.65,1.65,0,0,1,1.49-1.79Z"/><path class="cls-6" d="M87.85,35.28a1.65,1.65,0,0,1-1.79-1.5l-.19-2.19a1.65,1.65,0,0,1,1.49-1.79l14.92-1.34L101,13.53a1.65,1.65,0,0,1,1.5-1.78l2.19-.19a1.65,1.65,0,0,1,1.78,1.5l1.65,18.79a1.65,1.65,0,0,1-1.5,1.78Z"/><path class="cls-5" d="M58.76,104.3a1.64,1.64,0,0,1,2.19.79l.93,2a1.64,1.64,0,0,1-.79,2.18l-13.56,6.37,6.3,13.59a1.65,1.65,0,0,1-.8,2.19l-2,.93a1.65,1.65,0,0,1-2.19-.8l-8-17.09a1.64,1.64,0,0,1,.79-2.19Z"/><path class="cls-6" d="M75.68,30.15a1.66,1.66,0,0,1-2.19-.8l-.93-2a1.65,1.65,0,0,1,.8-2.19L86.92,18.8,80.62,5.21A1.64,1.64,0,0,1,81.42,3l2-.93a1.66,1.66,0,0,1,2.19.8l8,17.09a1.65,1.65,0,0,1-.8,2.19Z"/><path class="cls-6" d="M165.73,61.75a.93.93,0,0,1-.26-.66l.09-.4,10.63-28.58a1.61,1.61,0,0,1,1.6-1.11h4.87a1.61,1.61,0,0,1,1.6,1.11l10.63,28.58.09.4a.88.88,0,0,1-.29.66.92.92,0,0,1-.64.27h-4a1.28,1.28,0,0,1-1.28-.84l-2-5.37H173.67l-2,5.37a1.29,1.29,0,0,1-1.29.84H166.4A.9.9,0,0,1,165.73,61.75Zm9.49-11.08h10l-5-13.64Z"/><path class="cls-6" d="M200.21,61.71a1,1,0,0,1-.31-.76V40a1,1,0,0,1,.31-.78A1,1,0,0,1,201,39h3.68A1,1,0,0,1,205.7,40v1.82a9,9,0,0,1,7.4-3.33,8.27,8.27,0,0,1,6.47,2.66A10.5,10.5,0,0,1,222,48.5V61a1.08,1.08,0,0,1-.28.76,1,1,0,0,1-.78.31h-4a1.06,1.06,0,0,1-.75-.31,1,1,0,0,1-.31-.76V48.77a5.89,5.89,0,0,0-1.26-4A4.57,4.57,0,0,0,211,43.32a4.78,4.78,0,0,0-3.63,1.46,5.62,5.62,0,0,0-1.37,4V61a1.09,1.09,0,0,1-.29.76,1,1,0,0,1-.78.31H201A1,1,0,0,1,200.21,61.71Z"/><path class="cls-6" d="M232.24,59.91q-2-2.1-2-6.18v-10h-3.5a1.06,1.06,0,0,1-1.07-1.07V40A1.06,1.06,0,0,1,226.71,39h3.5V31.62a1,1,0,0,1,.31-.78,1,1,0,0,1,.75-.28H235a1,1,0,0,1,.77.28,1.07,1.07,0,0,1,.29.78V39h5.54a1,1,0,0,1,.75.31,1,1,0,0,1,.31.75v2.61a1,1,0,0,1-.31.76,1,1,0,0,1-.75.31H236v9.52a5.07,5.07,0,0,0,.67,2.88,2.43,2.43,0,0,0,2.17,1H242A1,1,0,0,1,243,58.16V61a1,1,0,0,1-.29.76A1,1,0,0,1,242,62h-3.63Q234.29,62,232.24,59.91Z"/><path class="cls-6" d="M247.35,34.9a1.06,1.06,0,0,1-.31-.75V30.91a1.13,1.13,0,0,1,.31-.8,1.07,1.07,0,0,1,.76-.31h4.07a1.06,1.06,0,0,1,1.11,1.11v3.24a1,1,0,0,1-.33.75,1.09,1.09,0,0,1-.78.31h-4.07A1,1,0,0,1,247.35,34.9Zm.18,26.81a1,1,0,0,1-.31-.76V40a1,1,0,0,1,.31-.78,1.08,1.08,0,0,1,.76-.28h3.76A1.06,1.06,0,0,1,253.11,40V61A1.06,1.06,0,0,1,252.05,62h-3.76A1.07,1.07,0,0,1,247.53,61.71Z"/><path class="cls-6" d="M259.36,51a1,1,0,0,1-.31-.75v-3a1.06,1.06,0,0,1,1.07-1.07h13.64a1,1,0,0,1,1.07,1.07v3a1.06,1.06,0,0,1-1.07,1.06H260.12A1,1,0,0,1,259.36,51Z"/><path class="cls-6" d="M280.72,61.71a1,1,0,0,1-.31-.76V32.11a1.14,1.14,0,0,1,.29-.8,1,1,0,0,1,.77-.31h10.82q13.06,0,13.33,12c.06,1.72.09,2.87.09,3.46s0,1.7-.09,3.41q-.17,6.21-3.34,9.15t-9.77,3h-11A1.06,1.06,0,0,1,280.72,61.71Zm11.57-4.83q3.68,0,5.31-1.64c1.1-1.09,1.67-2.91,1.73-5.45.06-1.78.09-2.88.09-3.33s0-1.56-.09-3.28c-.06-2.42-.66-4.2-1.82-5.33s-3-1.71-5.45-1.71h-5.4V56.88Z"/><path class="cls-6" d="M311.43,34.9a1,1,0,0,1-.31-.75V30.91a1.09,1.09,0,0,1,.31-.8,1,1,0,0,1,.75-.31h4.08a1.06,1.06,0,0,1,1.11,1.11v3.24a1,1,0,0,1-.34.75,1.08,1.08,0,0,1-.77.31h-4.08A1,1,0,0,1,311.43,34.9Zm.18,26.81a1,1,0,0,1-.32-.76V40a1,1,0,0,1,.32-.78,1,1,0,0,1,.75-.28h3.76A1.06,1.06,0,0,1,317.19,40V61A1.06,1.06,0,0,1,316.12,62h-3.76A1,1,0,0,1,311.61,61.71Z"/><path class="cls-6" d="M326.45,61.44a9,9,0,0,1-3.35-2.37A4,4,0,0,1,322,56.74a.87.87,0,0,1,.29-.7,1,1,0,0,1,.68-.27h3.64a.79.79,0,0,1,.62.35c.14.12.48.4,1,.85A6,6,0,0,0,330,58a6.14,6.14,0,0,0,2.19.37,5.39,5.39,0,0,0,2.88-.68,2.19,2.19,0,0,0,1.11-2,2.05,2.05,0,0,0-.51-1.45,4.74,4.74,0,0,0-1.82-1A36.22,36.22,0,0,0,330,52.22a11.85,11.85,0,0,1-5.56-2.43,5.61,5.61,0,0,1-1.8-4.35,5.86,5.86,0,0,1,1.07-3.34,7.58,7.58,0,0,1,3.17-2.57,11.57,11.57,0,0,1,5-1,13,13,0,0,1,5.18.95,9,9,0,0,1,3.3,2.29,3.88,3.88,0,0,1,1.13,2.35,1,1,0,0,1-1,1h-3.33a.9.9,0,0,1-.75-.35c-.21-.15-.54-.43-1-.82a5.8,5.8,0,0,0-1.53-1,5.35,5.35,0,0,0-2-.35,4,4,0,0,0-2.53.71,2.27,2.27,0,0,0-.89,1.86,2.09,2.09,0,0,0,.42,1.33,3.93,3.93,0,0,0,1.71,1,27.63,27.63,0,0,0,3.86,1q8,1.55,8,6.95a6,6,0,0,1-2.72,5.1q-2.73,2-7.6,2A13.69,13.69,0,0,1,326.45,61.44Z"/><path class="cls-6" d="M349.38,59.76a10.27,10.27,0,0,1-3.08-7.49l0-1.77,0-1.78a10.25,10.25,0,0,1,3.08-7.48,10.92,10.92,0,0,1,7.78-2.71,12.91,12.91,0,0,1,5.91,1.24,9.13,9.13,0,0,1,3.59,3,7,7,0,0,1,1.26,3.43.87.87,0,0,1-.28.76,1.15,1.15,0,0,1-.78.31h-3.94a1.06,1.06,0,0,1-.71-.2,2,2,0,0,1-.44-.73A5.14,5.14,0,0,0,360,43.94a4.73,4.73,0,0,0-2.76-.76,4.5,4.5,0,0,0-3.53,1.42A6.75,6.75,0,0,0,352.37,49l0,1.63,0,1.47c.18,3.84,1.8,5.76,4.88,5.76a4.89,4.89,0,0,0,2.79-.73,5.15,5.15,0,0,0,1.73-2.46,1.59,1.59,0,0,1,.42-.71,1,1,0,0,1,.73-.22h3.94a1.1,1.1,0,0,1,.78.31.85.85,0,0,1,.28.75,7.07,7.07,0,0,1-1.24,3.35,9.36,9.36,0,0,1-3.54,3.08,12.63,12.63,0,0,1-6,1.28A11,11,0,0,1,349.38,59.76Z"/><path class="cls-6" d="M373.11,61.71a1,1,0,0,1-.31-.76V40.08a1,1,0,0,1,.31-.79,1,1,0,0,1,.75-.31h3.64a1.06,1.06,0,0,1,1.1,1.1V41.9A7.53,7.53,0,0,1,385,39h1.86a1.05,1.05,0,0,1,.78.28,1.07,1.07,0,0,1,.29.78v3.23a1.09,1.09,0,0,1-.29.76,1,1,0,0,1-.78.31h-3.5a4.13,4.13,0,0,0-4.47,4.47V61a1,1,0,0,1-.31.76,1.06,1.06,0,0,1-.75.31h-3.95A1,1,0,0,1,373.11,61.71Z"/><path class="cls-6" d="M391.76,34.9a1.06,1.06,0,0,1-.31-.75V30.91a1.13,1.13,0,0,1,.31-.8,1.07,1.07,0,0,1,.76-.31h4.07a1.11,1.11,0,0,1,.8.31,1.09,1.09,0,0,1,.31.8v3.24a1,1,0,0,1-.33.75,1.09,1.09,0,0,1-.78.31h-4.07A1,1,0,0,1,391.76,34.9Zm.18,26.81a1,1,0,0,1-.31-.76V40a1,1,0,0,1,.31-.78,1.08,1.08,0,0,1,.75-.28h3.77a1,1,0,0,1,.75.31,1,1,0,0,1,.31.75V61a1,1,0,0,1-.31.76,1,1,0,0,1-.75.31h-3.77A1.06,1.06,0,0,1,391.94,61.71Z"/><path class="cls-6" d="M404,61.71a1,1,0,0,1-.31-.76V40a1,1,0,0,1,.31-.78,1.06,1.06,0,0,1,.75-.28h3.5a1.05,1.05,0,0,1,.78.28,1.07,1.07,0,0,1,.29.78v1.51a7.76,7.76,0,0,1,6.42-3q4.92,0,6.87,3.95a7.83,7.83,0,0,1,3-2.86,8.47,8.47,0,0,1,4.21-1.09A7.77,7.77,0,0,1,435.72,41c1.54,1.66,2.3,4.07,2.3,7.23V61a1.08,1.08,0,0,1-.28.76A1,1,0,0,1,437,62h-3.68a1.06,1.06,0,0,1-.75-.31,1,1,0,0,1-.31-.76V48.59a5.71,5.71,0,0,0-1.18-4A4,4,0,0,0,428,43.32a3.94,3.94,0,0,0-3,1.26,5.63,5.63,0,0,0-1.22,4V61a1.09,1.09,0,0,1-.29.76,1,1,0,0,1-.77.31H419a1.06,1.06,0,0,1-.75-.31A1,1,0,0,1,418,61V48.59a5.67,5.67,0,0,0-1.2-4,4,4,0,0,0-3.05-1.26,3.94,3.94,0,0,0-2.95,1.26,5.63,5.63,0,0,0-1.22,4V61a1,1,0,0,1-.29.76,1,1,0,0,1-.77.31H404.7A1,1,0,0,1,404,61.71Z"/><path class="cls-6" d="M444.05,34.9a1,1,0,0,1-.31-.75V30.91a1.09,1.09,0,0,1,.31-.8,1.06,1.06,0,0,1,.75-.31h4.08a1.11,1.11,0,0,1,.8.31,1.13,1.13,0,0,1,.31.8v3.24a1,1,0,0,1-.33.75,1.1,1.1,0,0,1-.78.31H444.8A1,1,0,0,1,444.05,34.9Zm.18,26.81a1,1,0,0,1-.31-.76V40a1,1,0,0,1,.31-.78A1.06,1.06,0,0,1,445,39h3.77a1,1,0,0,1,.75.31,1,1,0,0,1,.31.75V61a1,1,0,0,1-.31.76,1.06,1.06,0,0,1-.75.31H445A1,1,0,0,1,444.23,61.71Z"/><path class="cls-6" d="M456.24,61.71a1,1,0,0,1-.31-.76V40a1,1,0,0,1,.31-.78A1,1,0,0,1,457,39h3.68a1,1,0,0,1,.77.28,1.07,1.07,0,0,1,.29.78v1.82a9,9,0,0,1,7.4-3.33,8.28,8.28,0,0,1,6.47,2.66A10.5,10.5,0,0,1,478,48.5V61a1,1,0,0,1-.29.76,1,1,0,0,1-.77.31h-4a1,1,0,0,1-.75-.31,1,1,0,0,1-.31-.76V48.77a5.85,5.85,0,0,0-1.27-4A4.54,4.54,0,0,0,467,43.32a4.78,4.78,0,0,0-3.63,1.46,5.57,5.57,0,0,0-1.37,4V61a1.09,1.09,0,0,1-.29.76,1,1,0,0,1-.78.31H457A1,1,0,0,1,456.24,61.71Z"/><path class="cls-6" d="M486.43,61.55a7.41,7.41,0,0,1-3-2.46,6,6,0,0,1,1.35-8.28,14.56,14.56,0,0,1,6.69-2.53l6.07-.89v-.93a3.91,3.91,0,0,0-1-2.88,4.24,4.24,0,0,0-3.1-1,4.59,4.59,0,0,0-2.35.53,7.71,7.71,0,0,0-1.44,1.09L489,45a.67.67,0,0,1-.66.53h-3.46a1,1,0,0,1-.69-.27.91.91,0,0,1-.28-.71A4.73,4.73,0,0,1,485,42a8.65,8.65,0,0,1,3.21-2.44,12.45,12.45,0,0,1,5.37-1c3.48,0,6,.79,7.62,2.35A8.27,8.27,0,0,1,503.56,47V61a1.09,1.09,0,0,1-.29.76,1,1,0,0,1-.77.31h-3.68A1.06,1.06,0,0,1,497.76,61V59.23A7.27,7.27,0,0,1,495,61.55a9.6,9.6,0,0,1-4.43.91A9.38,9.38,0,0,1,486.43,61.55Zm9.64-4.94A6.32,6.32,0,0,0,497.62,52v-.88l-4.43.71c-3.4.53-5.09,1.66-5.09,3.41a2.49,2.49,0,0,0,1.17,2.19,5,5,0,0,0,2.81.78A5.33,5.33,0,0,0,496.07,56.61Z"/><path class="cls-6" d="M513.88,59.91q-2-2.1-2-6.18v-10h-3.5a1.06,1.06,0,0,1-1.07-1.07V40A1.06,1.06,0,0,1,508.35,39h3.5V31.62a1,1,0,0,1,.31-.78,1,1,0,0,1,.75-.28h3.68a1,1,0,0,1,.77.28,1.07,1.07,0,0,1,.29.78V39h5.54a1,1,0,0,1,.75.31,1,1,0,0,1,.31.75v2.61a1,1,0,0,1-.31.76,1,1,0,0,1-.75.31h-5.54v9.52a5.07,5.07,0,0,0,.67,2.88,2.43,2.43,0,0,0,2.17,1h3.1a1,1,0,0,1,1.06,1.06V61a1,1,0,0,1-.29.76,1,1,0,0,1-.77.31H520Q515.92,62,513.88,59.91Z"/><path class="cls-6" d="M529,34.9a1.06,1.06,0,0,1-.31-.75V30.91a1.13,1.13,0,0,1,.31-.8,1.07,1.07,0,0,1,.76-.31h4.07a1.06,1.06,0,0,1,1.11,1.11v3.24a1,1,0,0,1-.33.75,1.09,1.09,0,0,1-.78.31h-4.07A1,1,0,0,1,529,34.9Zm.18,26.81a1.07,1.07,0,0,1-.31-.76V40a1,1,0,0,1,.31-.78,1.08,1.08,0,0,1,.76-.28h3.76A1.06,1.06,0,0,1,534.76,40V61A1.06,1.06,0,0,1,533.69,62h-3.76A1.07,1.07,0,0,1,529.17,61.71Z"/><path class="cls-6" d="M543,59.8A10.3,10.3,0,0,1,540,52.45l0-2,0-2a10.26,10.26,0,0,1,3.11-7.34c1.92-1.78,4.59-2.68,8-2.68s6,.9,8,2.68a10.21,10.21,0,0,1,3.1,7.34c0,.35.05,1,.05,2s0,1.59-.05,2a10.25,10.25,0,0,1-3,7.35c-1.89,1.77-4.57,2.66-8,2.66S544.93,61.57,543,59.8Zm11.68-3.28a6.74,6.74,0,0,0,1.35-4.3c0-.29,0-.87,0-1.72s0-1.44,0-1.73a6.8,6.8,0,0,0-1.37-4.32A4.51,4.51,0,0,0,551.11,43a4.56,4.56,0,0,0-3.64,1.49,6.8,6.8,0,0,0-1.37,4.32l-.05,1.73.05,1.72a6.68,6.68,0,0,0,1.37,4.3A4.58,4.58,0,0,0,551.11,58,4.5,4.5,0,0,0,554.72,56.52Z"/><path class="cls-6" d="M567.72,61.71a1.07,1.07,0,0,1-.31-.76V40a1,1,0,0,1,.31-.78,1.08,1.08,0,0,1,.76-.28h3.67a1.05,1.05,0,0,1,.78.28,1.07,1.07,0,0,1,.29.78v1.82a9,9,0,0,1,7.4-3.33,8.3,8.3,0,0,1,6.47,2.66,10.55,10.55,0,0,1,2.39,7.31V61a1.09,1.09,0,0,1-.29.76,1,1,0,0,1-.77.31h-4A1.06,1.06,0,0,1,583.36,61V48.77a5.89,5.89,0,0,0-1.26-4,4.54,4.54,0,0,0-3.61-1.44,4.75,4.75,0,0,0-3.63,1.46,5.58,5.58,0,0,0-1.38,4V61a1,1,0,0,1-.29.76,1,1,0,0,1-.77.31h-3.94A1.07,1.07,0,0,1,567.72,61.71Z"/><path class="cls-6" d="M165.73,103.15a1.07,1.07,0,0,1-.26-.73V73.48a1.12,1.12,0,0,1,.26-.77.94.94,0,0,1,.71-.29h1.95a1.05,1.05,0,0,1,.67.18,3,3,0,0,1,.44.44L184.34,95.9V73.48a1,1,0,0,1,.29-.77,1,1,0,0,1,.73-.29h2a1,1,0,0,1,1.06,1.06v28.89a1.09,1.09,0,0,1-.29.76,1,1,0,0,1-.73.31h-2a1.11,1.11,0,0,1-1.07-.62L169.5,80.17v22.25a1,1,0,0,1-.29.73,1,1,0,0,1-.73.29h-2A.94.94,0,0,1,165.73,103.15Z"/><path class="cls-6" d="M197.77,101.07a11.63,11.63,0,0,1-3-7.69l0-1.51,0-1.46a11.59,11.59,0,0,1,3-7.62,10.68,10.68,0,0,1,14.78.26q2.69,3.11,2.68,8.42v.8a1,1,0,0,1-.29.73,1,1,0,0,1-.73.29H198.83v.4a8.21,8.21,0,0,0,1.78,4.92,5.29,5.29,0,0,0,4.34,2,6.35,6.35,0,0,0,3.39-.82,7.27,7.27,0,0,0,2-1.71,2.18,2.18,0,0,1,.62-.64,1.73,1.73,0,0,1,.75-.11h1.95a1.08,1.08,0,0,1,.69.22.7.7,0,0,1,.29.57,3.91,3.91,0,0,1-1.2,2.35,9.71,9.71,0,0,1-3.39,2.37,12,12,0,0,1-5,1A9.56,9.56,0,0,1,197.77,101.07ZM211.2,90.28v-.14a7.43,7.43,0,0,0-1.69-5,5.67,5.67,0,0,0-4.52-2,5.6,5.6,0,0,0-4.52,2,7.61,7.61,0,0,0-1.64,5v.14Z"/><path class="cls-6" d="M226.08,103.17a1.86,1.86,0,0,1-.48-.84l-6.29-20.56-.09-.44a.94.94,0,0,1,.26-.67.9.9,0,0,1,.67-.27H222a1.14,1.14,0,0,1,.74.25.91.91,0,0,1,.33.46L228,98l5.32-16.7a1.33,1.33,0,0,1,.4-.65,1.21,1.21,0,0,1,.84-.29H236a1.17,1.17,0,0,1,.84.29,1.33,1.33,0,0,1,.4.65L242.57,98l5-16.93a.91.91,0,0,1,.33-.46,1.09,1.09,0,0,1,.73-.25h1.82a.92.92,0,0,1,.93.94l-.09.44L245,102.33a1.87,1.87,0,0,1-.49.84,1.39,1.39,0,0,1-.93.27H242a1.44,1.44,0,0,1-1.5-1.11l-5.19-16-5.18,16a1.46,1.46,0,0,1-1.51,1.11H227A1.41,1.41,0,0,1,226.08,103.17Z"/><path class="cls-6" d="M269.88,102.73a9.66,9.66,0,0,1-4.08-3,7.17,7.17,0,0,1-1.49-4,.83.83,0,0,1,.27-.62.9.9,0,0,1,.66-.27h2.18a1.12,1.12,0,0,1,1.1.89,5.34,5.34,0,0,0,2.29,3.21,9.13,9.13,0,0,0,5.38,1.35,9.68,9.68,0,0,0,5.63-1.33,4.26,4.26,0,0,0,1.86-3.68,3.53,3.53,0,0,0-.91-2.48,7.51,7.51,0,0,0-2.7-1.7c-1.2-.49-3-1.09-5.39-1.8a27,27,0,0,1-5.43-2.08,8.16,8.16,0,0,1-3-2.72,7.58,7.58,0,0,1-1-4.1A7.4,7.4,0,0,1,266.49,76a8.61,8.61,0,0,1,3.72-3A14.1,14.1,0,0,1,276,72a13.23,13.23,0,0,1,5.91,1.21,9.85,9.85,0,0,1,3.75,3.06A7.09,7.09,0,0,1,287,80a.89.89,0,0,1-.93.93h-2.21a1.12,1.12,0,0,1-.67-.22,1.21,1.21,0,0,1-.44-.66,4.49,4.49,0,0,0-2.13-3.15A8.18,8.18,0,0,0,276,75.61a8.6,8.6,0,0,0-4.79,1.17,3.92,3.92,0,0,0-1.77,3.48,3.77,3.77,0,0,0,.82,2.53,7,7,0,0,0,2.53,1.73,44.33,44.33,0,0,0,5,1.72,36,36,0,0,1,5.92,2.13A8.1,8.1,0,0,1,286.87,91a7.09,7.09,0,0,1,1.06,4,7.57,7.57,0,0,1-3.17,6.49q-3.17,2.33-8.57,2.33A15.83,15.83,0,0,1,269.88,102.73Z"/><path class="cls-6" d="M295.31,101.13a10.7,10.7,0,0,1-2.81-7.31l-.05-1.9L292.5,90a10.63,10.63,0,0,1,2.85-7.31,11.52,11.52,0,0,1,14.94,0A10.63,10.63,0,0,1,313.14,90c.06.65.09,1.29.09,1.91s0,1.25-.09,1.9a10.7,10.7,0,0,1-2.81,7.31q-2.64,2.75-7.51,2.75T295.31,101.13Zm12-2.37a7.77,7.77,0,0,0,1.79-5.16c0-.3.05-.86.05-1.68s0-1.39-.05-1.69a7.81,7.81,0,0,0-1.79-5.16,6.55,6.55,0,0,0-9,0,7.81,7.81,0,0,0-1.79,5.16l0,1.69,0,1.68a7.77,7.77,0,0,0,1.79,5.16,6.53,6.53,0,0,0,9,0Z"/><path class="cls-6" d="M321.16,101.15a10.86,10.86,0,0,1-2.3-7.24V81.41a1,1,0,0,1,.29-.73,1,1,0,0,1,.73-.29h2a1,1,0,0,1,.73.29,1,1,0,0,1,.29.73V93.69q0,6.74,5.85,6.73a5.79,5.79,0,0,0,4.49-1.79A7,7,0,0,0,335,93.69V81.41a1,1,0,0,1,1-1h2a1,1,0,0,1,1,1v21a1,1,0,0,1-.29.73,1,1,0,0,1-.73.29h-1.9a1,1,0,0,1-.73-.29,1,1,0,0,1-.29-.73v-2a8.5,8.5,0,0,1-3,2.6,9.92,9.92,0,0,1-4.39.86A8.07,8.07,0,0,1,321.16,101.15Z"/><path class="cls-6" d="M347.93,95.68V83.81h-3.5a.93.93,0,0,1-1-1V81.41a1,1,0,0,1,.27-.73.93.93,0,0,1,.71-.29h3.5V73a1.09,1.09,0,0,1,.26-.73.93.93,0,0,1,.71-.28h2a1,1,0,0,1,1,1v7.4h5.5a1,1,0,0,1,.73.29,1,1,0,0,1,.29.73v1.42a.93.93,0,0,1-.29.71,1,1,0,0,1-.73.27h-5.5V95.37a6.47,6.47,0,0,0,.73,3.41,2.75,2.75,0,0,0,2.51,1.16h2.7a.93.93,0,0,1,.71.28,1,1,0,0,1,.26.74v1.46a1,1,0,0,1-.26.73.94.94,0,0,1-.71.29h-3Q347.93,103.44,347.93,95.68Z"/><path class="cls-6" d="M363.72,103.15a1,1,0,0,1-.28-.73V73a1,1,0,0,1,.28-.75,1,1,0,0,1,.74-.26h2a1,1,0,0,1,.76.26,1.05,1.05,0,0,1,.26.75V83.32a8.74,8.74,0,0,1,3-2.5,9.67,9.67,0,0,1,4.32-.87,8.3,8.3,0,0,1,6.62,2.73,10.56,10.56,0,0,1,2.37,7.2v12.54a1,1,0,0,1-.28.73,1,1,0,0,1-.73.29h-2.09a1,1,0,0,1-1-1V90.14a7.26,7.26,0,0,0-1.55-5,5.61,5.61,0,0,0-4.47-1.77,5.92,5.92,0,0,0-4.52,1.79,6.92,6.92,0,0,0-1.69,4.94v12.28a1,1,0,0,1-.28.73,1,1,0,0,1-.74.29h-2A1,1,0,0,1,363.72,103.15Z"/><path class="cls-6" d="M402.73,102.28,397,73.79l-.09-.48a.86.86,0,0,1,.27-.63.85.85,0,0,1,.62-.26H400c.62,0,1,.25,1.06.75l4.56,23.13,4.92-16a1.29,1.29,0,0,1,1.38-1.06h1.55a1.39,1.39,0,0,1,1.42,1.06l4.87,16,4.56-23.13q.13-.75,1.11-.75h2.13a.89.89,0,0,1,.62.26.85.85,0,0,1,.26.63,2.39,2.39,0,0,1,0,.48l-5.76,28.49a1.28,1.28,0,0,1-1.37,1.16h-1.6a1.42,1.42,0,0,1-1.46-1.11l-5.5-17.06-5.53,17.06a1.36,1.36,0,0,1-1.42,1.11h-1.64A1.32,1.32,0,0,1,402.73,102.28Z"/><path class="cls-6" d="M436.34,103a7.47,7.47,0,0,1-2.92-2.41,5.92,5.92,0,0,1,1.31-8.18,13.84,13.84,0,0,1,6.51-2.48l6.65-.93V87.71q0-4.58-5.28-4.57a5.89,5.89,0,0,0-3.27.82,5.2,5.2,0,0,0-1.82,1.93,1.51,1.51,0,0,1-.38.6.9.9,0,0,1-.55.15h-1.73a.91.91,0,0,1-.69-.29.94.94,0,0,1-.29-.68,4.3,4.3,0,0,1,1-2.37A7.63,7.63,0,0,1,437.78,81a10.77,10.77,0,0,1,4.88-1q5,0,7.11,2.31A8.11,8.11,0,0,1,451.92,88v14.4a1,1,0,0,1-.29.73,1,1,0,0,1-.73.29H449a.94.94,0,0,1-.71-.29,1,1,0,0,1-.26-.73v-2a7.55,7.55,0,0,1-2.84,2.44,10.43,10.43,0,0,1-4.79,1A9.16,9.16,0,0,1,436.34,103ZM446,98.74a7.62,7.62,0,0,0,1.86-5.54V92l-5.19.75a12.21,12.21,0,0,0-4.83,1.51,3.16,3.16,0,0,0-.15,5.45,6.26,6.26,0,0,0,3.52,1A6.41,6.41,0,0,0,446,98.74Z"/><path class="cls-6" d="M458.94,103.15a1,1,0,0,1-.29-.73V73a1,1,0,0,1,.29-.75,1,1,0,0,1,.73-.26h1.95a1,1,0,0,1,1,1v29.43a1,1,0,0,1-.29.73,1,1,0,0,1-.73.29h-1.95A1,1,0,0,1,458.94,103.15Z"/><path class="cls-6" d="M471.46,101.07a11.63,11.63,0,0,1-3-7.69l0-1.51,0-1.46a11.59,11.59,0,0,1,3-7.62,10.68,10.68,0,0,1,14.78.26q2.68,3.11,2.68,8.42v.8a1,1,0,0,1-.29.73,1,1,0,0,1-.73.29H472.52v.4a8.21,8.21,0,0,0,1.78,4.92,5.29,5.29,0,0,0,4.34,2,6.35,6.35,0,0,0,3.39-.82,7.27,7.27,0,0,0,2-1.71,2.18,2.18,0,0,1,.62-.64,1.73,1.73,0,0,1,.75-.11h1.95a1.08,1.08,0,0,1,.69.22.7.7,0,0,1,.29.57,3.91,3.91,0,0,1-1.2,2.35,9.71,9.71,0,0,1-3.39,2.37,12,12,0,0,1-5,1A9.56,9.56,0,0,1,471.46,101.07Zm13.43-10.79v-.14a7.43,7.43,0,0,0-1.69-5,5.67,5.67,0,0,0-4.52-2,5.6,5.6,0,0,0-4.52,2,7.61,7.61,0,0,0-1.64,5v.14Z"/><path class="cls-6" d="M497.32,102.88a8.49,8.49,0,0,1-3.13-2.28,3.79,3.79,0,0,1-1-2.13.83.83,0,0,1,.31-.68,1.09,1.09,0,0,1,.67-.25H496a.82.82,0,0,1,.42.09,2,2,0,0,1,.42.4,8,8,0,0,0,2.28,2,7,7,0,0,0,3.39.71,7.3,7.3,0,0,0,3.84-.89,2.85,2.85,0,0,0,1.44-2.57,2.47,2.47,0,0,0-.63-1.77,5.44,5.44,0,0,0-2.06-1.2,36.54,36.54,0,0,0-4.27-1.15,11,11,0,0,1-5.45-2.43,5.58,5.58,0,0,1-1.6-4.13,5.8,5.8,0,0,1,1-3.16,7,7,0,0,1,2.9-2.49,10.33,10.33,0,0,1,4.59-1,11.1,11.1,0,0,1,4.76.93,8.41,8.41,0,0,1,3,2.17,3.72,3.72,0,0,1,1,2.09.88.88,0,0,1-.29.66,1,1,0,0,1-.69.27h-1.68a.94.94,0,0,1-.89-.49c-.5-.56-.92-1-1.26-1.31a4.38,4.38,0,0,0-1.49-.8,7.67,7.67,0,0,0-2.43-.33,5.32,5.32,0,0,0-3.33.91,2.92,2.92,0,0,0-1.15,2.42,2.49,2.49,0,0,0,.49,1.57,4.31,4.31,0,0,0,1.86,1.2,27.63,27.63,0,0,0,4.08,1.13q4.2.88,6,2.52a5.54,5.54,0,0,1,1.75,4.21,6,6,0,0,1-1.09,3.46A7.12,7.12,0,0,1,507.6,103a13.44,13.44,0,0,1-5.12.89A11.9,11.9,0,0,1,497.32,102.88Z"/></g></g></svg>